# xmcd
#
# Track frame offsets: 
#        150
#        12569
#        29627
#        47186
#        56996
#        69589
#        89759
#        109388
#        129344
#        149138
#        165470
#        182928
#        201174
#
# Disc length: 2910 seconds
#
# Revision: 0
# Processed by: cddbd v1.5.2PL0 Copyright (c) Steve Scherf et al.
# Submitted via: ExactAudioCopy v0.99pb5
#
DISCID=d20b5c0d
DTITLE=R. C. Banks - Conway's Corner
DYEAR=2001
DGENRE=Country
TTITLE0=I Got Love
TTITLE1=Courthouse
TTITLE2=Walkin' on Air
TTITLE3=Jenny Jones
TTITLE4=Lonesome Texas
TTITLE5=More Than the World to Me
TTITLE6=Great Scott's BBQ
TTITLE7=Those Days Are Gone
TTITLE8=Now's the Time
TTITLE9=Pecan Trees
TTITLE10=Until the End of Time
TTITLE11=Bangin' a Gong
TTITLE12=South Plains Panhandle
EXTD=
EXTT0=
EXTT1=
EXTT2=
EXTT3=
EXTT4=
EXTT5=
EXTT6=
EXTT7=
EXTT8=
EXTT9=
EXTT10=
EXTT11=
EXTT12=
PLAYORDER=
